<svg width="152" height="152" viewBox="0 0 152 152" fill="none" xmlns="http://www.w3.org/2000/svg">
<rect x="2" y="2" width="148" height="148" rx="2" fill="#0A9418" fill-opacity="0.75" stroke="#06600F" stroke-width="4"/>
<path d="M72.0347 66.6249C72.0347 68.5227 71.5603 70.2056 70.6114 71.6737C69.6625 73.1418 68.3555 74.3145 66.6905 75.1918C68.5883 76.1049 70.0922 77.3671 71.2022 78.9784C72.3122 80.5718 72.8672 82.4517 72.8672 84.618C72.8672 88.0913 71.6856 90.8396 69.3223 92.8627C66.959 94.8679 63.7453 95.8705 59.6812 95.8705C55.6171 95.8705 52.3944 94.8589 50.0132 92.8358C47.632 90.8127 46.4414 88.0734 46.4414 84.618C46.4414 82.4517 46.9965 80.5629 48.1065 78.9515C49.2165 77.3402 50.7115 76.087 52.5914 75.1918C50.9263 74.3145 49.6193 73.1418 48.6705 71.6737C47.7395 70.2056 47.274 68.5227 47.274 66.6249C47.274 63.2948 48.384 60.6451 50.604 58.6757C52.8241 56.6884 55.8409 55.6947 59.6543 55.6947C63.4499 55.6947 66.4577 56.6794 68.6778 58.6488C70.9157 60.6003 72.0347 63.259 72.0347 66.6249ZM65.0791 84.0541C65.0791 82.3532 64.5868 80.9926 63.6021 79.972C62.6174 78.9515 61.2925 78.4413 59.6275 78.4413C57.9803 78.4413 56.6644 78.9515 55.6797 79.972C54.695 80.9747 54.2027 82.3353 54.2027 84.0541C54.2027 85.7191 54.6861 87.0619 55.6529 88.0824C56.6197 89.1029 57.9624 89.6132 59.6812 89.6132C61.3641 89.6132 62.6801 89.1208 63.6289 88.1361C64.5957 87.1514 65.0791 85.7907 65.0791 84.0541ZM64.2735 67.0009C64.2735 65.479 63.8706 64.2616 63.065 63.3485C62.2593 62.4175 61.1224 61.952 59.6543 61.952C58.2041 61.952 57.0762 62.3996 56.2705 63.2948C55.4649 64.19 55.0621 65.4253 55.0621 67.0009C55.0621 68.5585 55.4649 69.8117 56.2705 70.7606C57.0762 71.7095 58.2131 72.184 59.6812 72.184C61.1493 72.184 62.2772 71.7095 63.065 70.7606C63.8706 69.8117 64.2735 68.5585 64.2735 67.0009ZM103.617 66.6249C103.617 68.5227 103.142 70.2056 102.193 71.6737C101.245 73.1418 99.9375 74.3145 98.2725 75.1918C100.17 76.1049 101.674 77.3671 102.784 78.9784C103.894 80.5718 104.449 82.4517 104.449 84.618C104.449 88.0913 103.268 90.8396 100.904 92.8627C98.5411 94.8679 95.3274 95.8705 91.2632 95.8705C87.1991 95.8705 83.9764 94.8589 81.5953 92.8358C79.2141 90.8127 78.0235 88.0734 78.0235 84.618C78.0235 82.4517 78.5785 80.5629 79.6885 78.9515C80.7985 77.3402 82.2935 76.087 84.1734 75.1918C82.5083 74.3145 81.2014 73.1418 80.2525 71.6737C79.3215 70.2056 78.856 68.5227 78.856 66.6249C78.856 63.2948 79.966 60.6451 82.1861 58.6757C84.4061 56.6884 87.4229 55.6947 91.2364 55.6947C95.0319 55.6947 98.0398 56.6794 100.26 58.6488C102.498 60.6003 103.617 63.259 103.617 66.6249ZM96.6612 84.0541C96.6612 82.3532 96.1688 80.9926 95.1841 79.972C94.1994 78.9515 92.8746 78.4413 91.2095 78.4413C89.5624 78.4413 88.2465 78.9515 87.2618 79.972C86.2771 80.9747 85.7847 82.3353 85.7847 84.0541C85.7847 85.7191 86.2681 87.0619 87.2349 88.0824C88.2017 89.1029 89.5445 89.6132 91.2632 89.6132C92.9462 89.6132 94.2621 89.1208 95.211 88.1361C96.1778 87.1514 96.6612 85.7907 96.6612 84.0541ZM95.8555 67.0009C95.8555 65.479 95.4527 64.2616 94.647 63.3485C93.8414 62.4175 92.7045 61.952 91.2364 61.952C89.7862 61.952 88.6582 62.3996 87.8526 63.2948C87.0469 64.19 86.6441 65.4253 86.6441 67.0009C86.6441 68.5585 87.0469 69.8117 87.8526 70.7606C88.6582 71.7095 89.7951 72.184 91.2632 72.184C92.7313 72.184 93.8593 71.7095 94.647 70.7606C95.4527 69.8117 95.8555 68.5585 95.8555 67.0009Z" fill="white"/>
</svg>
